<svg width="302" height="302" viewBox="0 0 302 302" fill="none" xmlns="http://www.w3.org/2000/svg">
<path d="M37.4911 49.0077C17.3505 68.8139 1.71441 100.406 0.093139 136.77C-1.09593 163.441 9.26902 185.842 21.5259 203.399C27.6502 212.172 34.2158 219.689 39.9878 225.884C45.6304 231.94 50.8371 237.054 53.7332 240.516C58.7943 246.568 61.825 252.185 63.103 257.734C64.3917 263.33 63.8323 268.573 62.1761 273.732C60.5441 278.815 57.8209 283.889 54.7395 289.179C52.394 293.206 49.8508 297.343 47.2476 301.892C53.6162 302.094 60.4929 302.272 69.1715 299.854C80.2779 296.761 94.4249 289.318 113.137 271.538C124.367 260.869 135.739 251.584 146.85 243.205C117.898 228.23 94.385 208.389 77.0063 188.424C58.8618 167.58 47.2325 146.401 43.2132 130.275C37.5753 118.953 33.66 102.167 33.0629 84.9808C32.6407 72.8273 33.8677 60.2085 37.4911 49.0077ZM250.659 151.355C246.561 169.58 235.925 183.651 221.574 196.506C212.626 204.521 202.169 212.124 190.892 219.995C179.568 227.899 167.435 236.061 154.897 245.321C143.945 253.41 132.742 262.296 121.659 272.463C147.757 280.007 172.06 280.557 192.875 273.104C215.032 265.171 233.621 248.036 246.364 219.697C252.706 205.591 258.817 182.149 250.659 151.355ZM218.484 19.1716C204.898 16.4033 178.594 11.2331 143.804 30.1176C168.578 39.3465 191.759 54.7868 210.467 72.6556C230.821 92.0966 246.118 114.643 252.294 135.542C267.237 174.934 260.002 205.043 252.175 222.449C249.753 227.837 247.117 232.855 244.285 237.514C281.877 218.628 302.59 181.013 301.987 140.594C301.335 96.8779 275.69 49.4905 218.484 19.1716ZM197.619 9.85391C167.989 -0.999994 138.594 -2.0792 113.528 2.7053C82.5397 8.62043 58.7063 23.3677 48.9406 39.044C41.5837 51.2744 38.8805 68.0891 39.4592 84.7471C39.9459 98.7559 42.7417 112.271 46.71 122.316C78.6804 72.3372 108.393 43.8482 134.34 28.0402C159.767 12.5485 181.398 9.34844 197.619 9.85391Z" fill="black"/>
</svg>
